<svg width="36" height="36" viewBox="0 0 36 36" fill="none" xmlns="http://www.w3.org/2000/svg">
<g clip-path="url(#clip0_2_8)">
<path d="M35.3417 32.1678L28.374 25.1972C33.5875 18.23 32.166 8.35551 25.1988 3.14193C18.2317 -2.07166 8.35715 -0.650082 3.14357 6.31708C-2.07001 13.2842 -0.648434 23.1587 6.31873 28.3723C11.9153 32.5603 19.6021 32.5603 25.1988 28.3723L32.1695 35.343C33.0455 36.219 34.4657 36.219 35.3416 35.343C36.2176 34.467 36.2176 33.0468 35.3416 32.1708L35.3417 32.1678ZM15.8169 27.0269C9.62478 27.0269 4.60516 22.0073 4.60516 15.8152C4.60516 9.62313 9.62478 4.60351 15.8169 4.60351C22.0089 4.60351 27.0286 9.62313 27.0286 15.8152C27.022 22.0045 22.0062 27.0203 15.8169 27.0269Z" fill="#FFA2AA"/>
</g>
<defs>
<clipPath id="clip0_2_8">
<rect width="36" height="36" fill="white"/>
</clipPath>
</defs>
</svg>
