<svg width="15" height="15" viewBox="0 0 15 15" fill="none" xmlns="http://www.w3.org/2000/svg">
<g clip-path="url(#clip0_3_139)">
<path d="M14.8975 5.49625C14.7697 5.08931 14.5142 4.73432 14.169 4.48377C13.8238 4.23322 13.4071 4.10042 12.9806 4.105H10.25L9.42062 1.52C9.2902 1.1131 9.03392 0.758136 8.68873 0.506293C8.34354 0.25445 7.92729 0.118744 7.5 0.118744C7.07271 0.118744 6.65645 0.25445 6.31127 0.506293C5.96608 0.758136 5.7098 1.1131 5.57937 1.52L4.75 4.105H2.01937C1.59421 4.10561 1.18012 4.24055 0.836236 4.49057C0.492353 4.74058 0.236274 5.09287 0.104574 5.49712C-0.0271252 5.90137 -0.0277081 6.3369 0.102909 6.7415C0.233526 7.1461 0.488661 7.49907 0.831873 7.75L3.05437 9.375L2.20937 11.9919C2.07282 12.3977 2.07109 12.8369 2.20444 13.2438C2.3378 13.6507 2.59909 14.0037 2.94937 14.25C3.29366 14.5042 3.71087 14.6404 4.13884 14.6383C4.56682 14.6362 4.98265 14.4958 5.32437 14.2381L7.5 12.6369L9.67625 14.2363C10.0199 14.489 10.4349 14.6263 10.8615 14.6284C11.2881 14.6305 11.7044 14.4972 12.0505 14.2478C12.3966 13.9984 12.6547 13.6457 12.7877 13.2403C12.9207 12.8349 12.9217 12.3979 12.7906 11.9919L11.9456 9.375L14.1706 7.75C14.5178 7.50222 14.7759 7.14925 14.9068 6.74334C15.0377 6.33743 15.0345 5.90016 14.8975 5.49625ZM13.4331 6.74063L10.8431 8.63375C10.7367 8.71136 10.6576 8.82058 10.617 8.94584C10.5763 9.07109 10.5763 9.20598 10.6169 9.33125L11.6012 12.375C11.6511 12.5294 11.6506 12.6956 11.6 12.8497C11.5494 13.0038 11.4513 13.1379 11.3196 13.2327C11.188 13.3275 11.0297 13.3782 10.8675 13.3774C10.7053 13.3765 10.5475 13.3243 10.4169 13.2281L7.87 11.3531C7.76273 11.2743 7.6331 11.2318 7.5 11.2318C7.3669 11.2318 7.23727 11.2743 7.13 11.3531L4.58312 13.2281C4.45255 13.3256 4.29433 13.3789 4.13141 13.3804C3.96849 13.3819 3.80934 13.3314 3.67702 13.2363C3.5447 13.1413 3.44609 13.0066 3.3955 12.8517C3.3449 12.6968 3.34495 12.5298 3.39562 12.375L4.38312 9.33125C4.4237 9.20598 4.42367 9.07109 4.38304 8.94584C4.34241 8.82058 4.26326 8.71136 4.15687 8.63375L1.56687 6.74063C1.43644 6.64512 1.33952 6.51084 1.28996 6.35697C1.2404 6.20309 1.24074 6.03749 1.29093 5.88381C1.34111 5.73014 1.43858 5.59626 1.5694 5.50129C1.70022 5.40631 1.85771 5.35512 2.01937 5.355H5.20687C5.3392 5.355 5.4681 5.313 5.57503 5.23505C5.68195 5.1571 5.76138 5.04723 5.80187 4.92125L6.77062 1.90188C6.82035 1.74737 6.91782 1.61262 7.049 1.51703C7.18018 1.42144 7.33831 1.36994 7.50062 1.36994C7.66294 1.36994 7.82106 1.42144 7.95225 1.51703C8.08343 1.61262 8.1809 1.74737 8.23062 1.90188L9.19937 4.92125C9.23986 5.04723 9.31929 5.1571 9.42622 5.23505C9.53314 5.313 9.66205 5.355 9.79437 5.355H12.9819C13.1435 5.35512 13.301 5.40631 13.4318 5.50129C13.5627 5.59626 13.6601 5.73014 13.7103 5.88381C13.7605 6.03749 13.7608 6.20309 13.7113 6.35697C13.6617 6.51084 13.5648 6.64512 13.4344 6.74063H13.4331Z" fill="#A71C29"/>
</g>
<defs>
<clipPath id="clip0_3_139">
<rect width="15" height="15" fill="white"/>
</clipPath>
</defs>
</svg>
